<?xml version="1.0" encoding="utf-8"?>
<!-- Generator: Adobe Illustrator 16.0.0, SVG Export Plug-In . SVG Version: 6.00 Build 0)  -->
<!DOCTYPE svg PUBLIC "-//W3C//DTD SVG 1.1//EN" "http://www.w3.org/Graphics/SVG/1.1/DTD/svg11.dtd">
<svg version="1.1" id="Layer_1" xmlns="http://www.w3.org/2000/svg" xmlns:xlink="http://www.w3.org/1999/xlink" x="0px" y="0px"
	 width="500px" height="500px" viewBox="0 0 500 500" enable-background="new 0 0 500 500" xml:space="preserve">
<g>
	<path fill="#FFFFFF" d="M12.963,39.066c-1.852,0-3.337-0.551-4.456-1.652c-1.119-1.101-1.884-2.531-2.294-4.289L9.588,32
		c0.809,2.25,1.934,3.375,3.375,3.375c0.715,0,1.269-0.196,1.661-0.589s0.589-0.946,0.589-1.661c0-1.043-0.375-1.91-1.125-2.602
		l-4.5-3.375c-0.504-0.34-0.926-0.659-1.266-0.958c-0.34-0.299-0.686-0.665-1.037-1.099c-0.351-0.434-0.618-0.92-0.8-1.459
		c-0.182-0.539-0.272-1.125-0.272-1.758c0-1.922,0.612-3.393,1.837-4.412c1.225-1.019,2.862-1.529,4.913-1.529
		c0.973,0,1.852,0.155,2.637,0.466c0.785,0.311,1.444,0.747,1.978,1.31c0.534,0.563,0.973,1.187,1.318,1.872s0.618,1.45,0.817,2.294
		L16.338,23c-0.164-0.445-0.328-0.829-0.492-1.151c-0.164-0.322-0.384-0.671-0.659-1.046s-0.601-0.665-0.976-0.87
		s-0.791-0.308-1.248-0.308c-0.715,0-1.269,0.196-1.661,0.589c-0.392,0.393-0.589,0.946-0.589,1.661
		c0,0.703,0.375,1.336,1.125,1.898l4.5,3.375c0.504,0.398,0.935,0.782,1.292,1.151c0.357,0.369,0.706,0.797,1.046,1.283
		c0.34,0.486,0.598,1.028,0.773,1.626c0.175,0.598,0.264,1.236,0.264,1.916c0,1.922-0.612,3.393-1.837,4.412
		S15.014,39.066,12.963,39.066z"/>
	<path fill="#FFFFFF" d="M23.044,12.875v-4.5h4.5v4.5H23.044z M23.044,38.75v-22.5h4.5v22.5H23.044z"/>
	<path fill="#FFFFFF" d="M32.265,38.75V7.25h4.5v31.5H32.265z"/>
	<path fill="#FFFFFF" d="M47.532,39.066c-1.09,0-2.036-0.188-2.839-0.562c-0.803-0.374-1.441-0.864-1.916-1.468
		s-0.858-1.377-1.151-2.32c-0.293-0.943-0.495-1.887-0.606-2.83c-0.111-0.943-0.179-2.042-0.202-3.296
		c-0.035-0.984-0.035-1.969,0-2.953c0.035-1.172,0.114-2.212,0.237-3.12c0.123-0.908,0.337-1.79,0.642-2.646
		c0.305-0.856,0.7-1.559,1.187-2.109c0.487-0.55,1.125-0.993,1.916-1.327s1.714-0.501,2.769-0.501c0.961,0,1.808,0.126,2.54,0.378
		s1.342,0.633,1.828,1.143c0.486,0.51,0.891,1.075,1.213,1.696c0.322,0.621,0.565,1.374,0.729,2.259
		c0.164,0.885,0.278,1.755,0.343,2.61s0.097,1.84,0.097,2.953V27.5h-9v1.125c0,0.152,0,0.393,0,0.721
		c-0.023,0.434-0.026,0.882-0.009,1.345s0.038,0.917,0.062,1.362c0.024,0.445,0.088,0.87,0.193,1.274
		c0.105,0.404,0.234,0.759,0.387,1.063c0.153,0.304,0.366,0.545,0.642,0.721c0.276,0.176,0.601,0.264,0.976,0.264
		c0.469,0,0.855-0.091,1.16-0.272s0.53-0.454,0.677-0.817c0.147-0.363,0.249-0.727,0.308-1.09c0.059-0.363,0.094-0.82,0.105-1.371
		v-0.949h4.465v0.896c-0.105,2.402-0.697,4.219-1.775,5.449C51.432,38.451,49.77,39.066,47.532,39.066z M45.317,25.25h4.465v-1.354
		c-0.012-0.598-0.047-1.119-0.105-1.564c-0.058-0.445-0.161-0.891-0.308-1.336c-0.147-0.445-0.372-0.785-0.677-1.02
		c-0.305-0.235-0.68-0.352-1.125-0.352c-0.457,0-0.841,0.123-1.151,0.369s-0.539,0.601-0.686,1.063
		c-0.147,0.462-0.249,0.917-0.308,1.362s-0.094,0.979-0.105,1.6V25.25z"/>
	<path fill="#FFFFFF" d="M57.965,38.75v-22.5h4.5v2.426c0.668-0.609,1.213-1.075,1.635-1.397c0.422-0.322,1.005-0.627,1.749-0.914
		c0.744-0.287,1.538-0.431,2.382-0.431c0.961,0,1.74,0.352,2.338,1.055c0.598,0.703,0.896,1.563,0.896,2.584V38.75h-4.5V21.875
		c0-0.785-0.111-1.356-0.334-1.714c-0.223-0.358-0.674-0.536-1.354-0.536c-0.387,0-0.771,0.079-1.151,0.237
		c-0.38,0.158-0.665,0.305-0.853,0.439c-0.188,0.134-0.457,0.349-0.809,0.642V38.75H57.965z"/>
	<path fill="#FFFFFF" d="M82.039,39.066c-1.77,0-3.056-0.451-3.858-1.354c-0.802-0.903-1.216-2.268-1.239-4.096V19.625h-2.25V16.25
		h2.25V8.375h4.5v7.875h3.375v3.375h-3.375v13.131c0,0.902,0.123,1.564,0.369,1.986c0.246,0.422,0.744,0.633,1.494,0.633
		c0.328,0,0.832-0.059,1.512-0.176v3.656C83.691,38.996,82.765,39.066,82.039,39.066z"/>
	<path fill="#FFFFFF" d="M88.517,38.75V7.25h4.5v31.5H88.517z"/>
	<path fill="#FFFFFF" d="M96.84,44.375V41c0.891,0,1.603-0.059,2.136-0.176c0.533-0.117,0.935-0.325,1.204-0.624
		c0.269-0.299,0.442-0.627,0.519-0.984c0.077-0.357,0.114-0.853,0.114-1.485l-5.098-21.48h4.5c1.746,9.645,2.689,14.895,2.83,15.75
		c0.246-1.582,0.524-3.249,0.835-5.001s0.662-3.686,1.055-5.801c0.393-2.115,0.694-3.765,0.905-4.948h4.5l-5.625,23.625
		c-0.375,1.629-1.166,2.786-2.373,3.472s-2.889,1.028-5.045,1.028L96.84,44.375L96.84,44.375z"/>
</g>
<g id="account-box">
	<path fill="#FFFFFF" d="M5,62.222v15.556C5,79,6,80,7.222,80h15.556C24,80,25,79,25,77.778V62.222C25,61,24,60,22.778,60H7.222
		C6,60,5,61,5,62.222z M18.333,66.667C18.333,68.556,16.889,70,15,70s-3.333-1.444-3.333-3.333s1.445-3.333,3.333-3.333
		S18.333,64.778,18.333,66.667z M8.333,75.556c0-2.222,4.444-3.444,6.667-3.444s6.667,1.222,6.667,3.444v1.111H8.333V75.556z"/>
</g>
<polygon fill="#FFFFFF" points="5,4.5 5,4.5 5,4.5 5,4.5 5,3.5 5,3.5 5,3.5 5,3.5 "/>
<polygon points="54.58,60 39,75 54.58,90 59,85.745 47.84,75 59,64.255 "/>
<polygon points="74.42,90 90,75 74.42,60 70,64.255 81.16,75 70,85.745 "/>
<path d="M116.724,60v5.473c3.907,0,7.086,2.81,7.086,6.264s-3.179,6.264-7.086,6.264h-4.874l3.005-2.657l-4.377-3.87L100,80.737
	L110.478,90l4.377-3.87l-3.005-2.656h4.874c7.32,0,13.276-5.265,13.276-11.737C130,65.265,124.044,60,116.724,60z"/>
<g id="add-circle">
	<path fill="#00C600" d="M15,100c-5.5,0-10,4.5-10,10s4.5,10,10,10s10-4.5,10-10S20.5,100,15,100z M20,111h-4v4h-2v-4h-4v-2h4v-4h2
		v4h4V111z"/>
</g>
<g id="add-circle_1_" opacity="0.4">
	<path d="M50,100c-5.5,0-10,4.5-10,10s4.5,10,10,10s10-4.5,10-10S55.5,100,50,100z M55,111h-4v4h-2v-4h-4v-2h4v-4h2v4h4V111z"/>
</g>
<g id="c142_x">
	<path fill="#BC0000" d="M84.999,100C79.476,100,75,104.478,75,110c0,5.521,4.476,10,9.999,10C90.523,120,95,115.522,95,110
		C95,104.478,90.523,100,84.999,100z M89.298,112.708l-1.593,1.59c0,0-2.52-2.703-2.708-2.703c-0.185,0-2.706,2.703-2.706,2.703
		l-1.593-1.59c0,0,2.706-2.483,2.706-2.704c0-0.225-2.706-2.708-2.706-2.708l1.593-1.594c0,0,2.542,2.705,2.706,2.705
		c0.166,0,2.708-2.705,2.708-2.705l1.593,1.594c0,0-2.707,2.52-2.707,2.708C86.591,110.184,89.298,112.708,89.298,112.708z"/>
</g>
<g id="Capa_1">
</g>
<g id="c142_x_1_" opacity="0.4">
	<path d="M119.998,100c-5.521,0-9.998,4.478-9.998,10c0,5.521,4.477,10,9.998,10c5.525,0,10.002-4.478,10.002-10
		C130,104.478,125.523,100,119.998,100z M124.299,112.708l-1.594,1.59c0,0-2.52-2.703-2.707-2.703c-0.186,0-2.706,2.703-2.706,2.703
		l-1.593-1.59c0,0,2.705-2.483,2.705-2.704c0-0.225-2.705-2.708-2.705-2.708l1.593-1.594c0,0,2.542,2.705,2.706,2.705
		c0.166,0,2.707-2.705,2.707-2.705l1.594,1.594c0,0-2.707,2.52-2.707,2.708C121.592,110.184,124.299,112.708,124.299,112.708z"/>
</g>
</svg>
