<?xml version="1.0" encoding="utf-8"?>
<!-- Generator: Adobe Illustrator 16.0.0, SVG Export Plug-In . SVG Version: 6.00 Build 0)  -->
<!DOCTYPE svg PUBLIC "-//W3C//DTD SVG 1.1//EN" "http://www.w3.org/Graphics/SVG/1.1/DTD/svg11.dtd">
<svg version="1.1" id="Layer_1" xmlns="http://www.w3.org/2000/svg" xmlns:xlink="http://www.w3.org/1999/xlink" x="0px" y="0px"
	 width="500px" height="500px" viewBox="0 0 500 500" enable-background="new 0 0 500 500" xml:space="preserve">
<g>
	<path fill="#FFFFFF" d="M12.963,39.066c-1.852,0-3.337-0.551-4.456-1.652s-1.884-2.531-2.294-4.289L9.588,32
		c0.809,2.25,1.934,3.375,3.375,3.375c0.715,0,1.269-0.196,1.661-0.589s0.589-0.946,0.589-1.661c0-1.043-0.375-1.91-1.125-2.602
		l-4.5-3.375c-0.504-0.34-0.926-0.659-1.266-0.958s-0.686-0.665-1.037-1.099s-0.618-0.92-0.8-1.459s-0.272-1.125-0.272-1.758
		c0-1.922,0.612-3.393,1.837-4.412s2.862-1.529,4.913-1.529c0.973,0,1.852,0.155,2.637,0.466s1.444,0.747,1.978,1.31
		s0.973,1.187,1.318,1.872s0.618,1.45,0.817,2.294L16.338,23c-0.164-0.445-0.328-0.829-0.492-1.151s-0.384-0.671-0.659-1.046
		s-0.601-0.665-0.976-0.87s-0.791-0.308-1.248-0.308c-0.715,0-1.269,0.196-1.661,0.589s-0.589,0.946-0.589,1.661
		c0,0.703,0.375,1.336,1.125,1.898l4.5,3.375c0.504,0.398,0.935,0.782,1.292,1.151s0.706,0.797,1.046,1.283s0.598,1.028,0.773,1.626
		s0.264,1.236,0.264,1.916c0,1.922-0.612,3.393-1.837,4.412S15.014,39.066,12.963,39.066z"/>
	<path fill="#FFFFFF" d="M23.044,12.875v-4.5h4.5v4.5H23.044z M23.044,38.75v-22.5h4.5v22.5H23.044z"/>
	<path fill="#FFFFFF" d="M32.265,38.75V7.25h4.5v31.5H32.265z"/>
	<path fill="#FFFFFF" d="M47.532,39.066c-1.09,0-2.036-0.188-2.839-0.562s-1.441-0.864-1.916-1.468s-0.858-1.377-1.151-2.32
		s-0.495-1.887-0.606-2.83s-0.179-2.042-0.202-3.296c-0.035-0.984-0.035-1.969,0-2.953c0.035-1.172,0.114-2.212,0.237-3.12
		s0.337-1.79,0.642-2.646s0.7-1.559,1.187-2.109s1.125-0.993,1.916-1.327s1.714-0.501,2.769-0.501c0.961,0,1.808,0.126,2.54,0.378
		s1.342,0.633,1.828,1.143s0.891,1.075,1.213,1.696s0.565,1.374,0.729,2.259s0.278,1.755,0.343,2.61s0.097,1.84,0.097,2.953V27.5h-9
		v1.125c0,0.152,0,0.393,0,0.721c-0.023,0.434-0.026,0.882-0.009,1.345s0.038,0.917,0.062,1.362s0.088,0.87,0.193,1.274
		s0.234,0.759,0.387,1.063s0.366,0.545,0.642,0.721s0.601,0.264,0.976,0.264c0.469,0,0.855-0.091,1.16-0.272s0.53-0.454,0.677-0.817
		s0.249-0.727,0.308-1.09s0.094-0.82,0.105-1.371v-0.949h4.465v0.896c-0.105,2.402-0.697,4.219-1.775,5.449
		S49.77,39.066,47.532,39.066z M45.317,25.25h4.465v-1.354c-0.012-0.598-0.047-1.119-0.105-1.564s-0.161-0.891-0.308-1.336
		s-0.372-0.785-0.677-1.02s-0.68-0.352-1.125-0.352c-0.457,0-0.841,0.123-1.151,0.369s-0.539,0.601-0.686,1.063
		s-0.249,0.917-0.308,1.362s-0.094,0.979-0.105,1.6V25.25z"/>
	<path fill="#FFFFFF" d="M57.965,38.75v-22.5h4.5v2.426c0.668-0.609,1.213-1.075,1.635-1.397s1.005-0.627,1.749-0.914
		s1.538-0.431,2.382-0.431c0.961,0,1.74,0.352,2.338,1.055s0.896,1.564,0.896,2.584V38.75h-4.5V21.875
		c0-0.785-0.111-1.356-0.334-1.714s-0.674-0.536-1.354-0.536c-0.387,0-0.771,0.079-1.151,0.237s-0.665,0.305-0.853,0.439
		s-0.457,0.349-0.809,0.642V38.75H57.965z"/>
	<path fill="#FFFFFF" d="M82.039,39.066c-1.77,0-3.056-0.451-3.858-1.354s-1.216-2.268-1.239-4.096V19.625h-2.25V16.25h2.25V8.375
		h4.5v7.875h3.375v3.375h-3.375v13.131c0,0.902,0.123,1.564,0.369,1.986s0.744,0.633,1.494,0.633c0.328,0,0.832-0.059,1.512-0.176
		v3.656C83.691,38.996,82.765,39.066,82.039,39.066z"/>
	<path fill="#FFFFFF" d="M88.517,38.75V7.25h4.5v31.5H88.517z"/>
	<path fill="#FFFFFF" d="M96.84,44.375V41c0.891,0,1.603-0.059,2.136-0.176s0.935-0.325,1.204-0.624s0.442-0.627,0.519-0.984
		s0.114-0.853,0.114-1.485l-5.098-21.48h4.5c1.746,9.645,2.689,14.895,2.83,15.75c0.246-1.582,0.524-3.249,0.835-5.001
		s0.662-3.686,1.055-5.801s0.694-3.765,0.905-4.948h4.5l-5.625,23.625c-0.375,1.629-1.166,2.786-2.373,3.472
		s-2.889,1.028-5.045,1.028H96.84z"/>
</g>
<g id="account-box">
	<path fill="#FFFFFF" d="M5,62.222v15.556C5,79,6,80,7.222,80h15.556C24,80,25,79,25,77.778V62.222C25,61,24,60,22.778,60H7.222
		C6,60,5,61,5,62.222z M18.333,66.667C18.333,68.556,16.889,70,15,70s-3.333-1.444-3.333-3.333c0-1.889,1.445-3.333,3.333-3.333
		S18.333,64.778,18.333,66.667z M8.333,75.556c0-2.222,4.444-3.444,6.667-3.444s6.667,1.222,6.667,3.444v1.111H8.333V75.556z"/>
</g>
<polygon fill="#FFFFFF" points="5,4.5 5,4.5 5,4.5 5,4.5 5,3.5 5,3.5 5,3.5 5,3.5 "/>
<g>
</g>
<g>
</g>
<g>
</g>
<g>
</g>
<g>
</g>
<g>
</g>
</svg>
